<svg width="13" height="25" viewBox="0 0 13 25" fill="none" xmlns="http://www.w3.org/2000/svg">
<path d="M10.8415 2.5H5.32143C5.06659 2.5 4.83665 2.65297 4.73819 2.88802L0.36726 13.3218C0.192709 13.7385 0.498751 14.1985 0.950504 14.1985H5.11206C5.32268 14.1985 5.47443 14.4006 5.4157 14.6029L3.12425 22.4957C3.02806 22.827 3.4564 23.0509 3.67356 22.7828L11.9704 12.5414C12.3053 12.128 12.0111 11.511 11.479 11.511H7.93773C7.70366 11.511 7.55074 11.2655 7.65394 11.0555L11.409 3.41116C11.6154 2.99098 11.3096 2.5 10.8415 2.5Z" fill="url(#paint0_linear_1_105)"/>
<defs>
<linearGradient id="paint0_linear_1_105" x1="3.79412" y1="4.08088" x2="8.37868" y2="17.5184" gradientUnits="userSpaceOnUse">
<stop stop-color="#FFDF6F"/>
<stop offset="1" stop-color="#FFB84E"/>
</linearGradient>
</defs>
</svg>
