<svg width="22" height="22" viewBox="0 0 22 22" fill="none" xmlns="http://www.w3.org/2000/svg">
<path fill-rule="evenodd" clip-rule="evenodd" d="M10.9996 0C4.92291 0 0 4.92291 0 10.9996C0 17.0635 4.92291 21.9864 10.9996 21.9992C17.0763 21.9992 21.9992 17.0763 21.9992 10.9996C21.9992 4.92291 17.0763 0 10.9996 0ZM13.025 5.62871C14.0378 5.79537 15.0121 6.10305 15.948 6.52611C17.5505 8.885 18.3453 11.5516 18.0633 14.6284C16.9864 15.4361 15.7685 16.0386 14.4737 16.436C14.1788 16.0386 13.9224 15.6284 13.7045 15.1925C14.1275 15.0386 14.5378 14.8463 14.9224 14.6156C14.8711 14.5771 14.823 14.5386 14.7749 14.5002C14.7269 14.4617 14.6788 14.4233 14.6275 14.3848C12.3584 15.4617 9.71743 15.4617 7.44828 14.3848C7.397 14.4233 7.34892 14.4617 7.30084 14.5002C7.25277 14.5387 7.20469 14.5771 7.15342 14.6156C7.53802 14.8463 7.93544 15.0386 8.3585 15.1925C8.14056 15.6284 7.88416 16.0386 7.5893 16.436C6.29447 16.0514 5.08938 15.4361 3.99968 14.6284C3.7561 11.9746 4.25608 9.29525 6.10217 6.53893C7.02521 6.10305 8.01236 5.79537 9.02515 5.62871C9.16617 5.87229 9.29437 6.12869 9.40975 6.39791C10.4866 6.23125 11.5763 6.23125 12.6532 6.39791C12.7558 6.15433 12.8968 5.85947 13.025 5.62871ZM7.397 11.5644C7.397 12.3464 7.96108 12.9874 8.66618 12.9874C9.38411 12.9874 9.93537 12.3464 9.94819 11.5644C9.94819 10.7696 9.38411 10.1286 8.66618 10.1286C7.96108 10.1286 7.397 10.7824 7.397 11.5644ZM12.1148 11.5644C12.1148 12.3464 12.6789 12.9874 13.384 12.9874C14.0891 12.9874 14.6403 12.3592 14.6532 11.5644C14.666 10.7696 14.1019 10.1286 13.384 10.1286C12.6789 10.1286 12.1148 10.7824 12.1148 11.5644Z" fill="white"/>
</svg>
