<svg width="22" height="18" viewBox="0 0 22 18" fill="none" xmlns="http://www.w3.org/2000/svg">
<path d="M18.0635 2.30536C16.7022 1.68998 15.2849 1.24242 13.8117 1C13.6252 1.33566 13.4201 1.76457 13.2709 2.11888C11.7045 1.87646 10.1194 1.87646 8.55298 2.11888C8.38515 1.72727 8.19867 1.35431 7.99354 1C6.52035 1.24242 5.08445 1.68998 3.74179 2.32401C1.05648 6.33333 0.329202 10.2308 0.683514 14.0909C2.2686 15.2657 4.02151 16.1608 5.90496 16.7203C6.33387 16.1422 6.70683 15.5454 7.02384 14.9114C6.40846 14.6876 5.83037 14.4079 5.27093 14.0723C5.42011 13.9604 5.55065 13.8485 5.69984 13.7366C9.00054 15.303 12.842 15.303 16.1427 13.7366C16.2919 13.8485 16.4224 13.9604 16.5716 14.0723C16.0122 14.4079 15.4155 14.6876 14.8001 14.9114C15.1171 15.5454 15.49 16.1422 15.919 16.7203C17.8024 16.1422 19.574 15.2657 21.1404 14.0909C21.5507 9.61538 20.3945 5.73659 18.0635 2.30536ZM7.4714 11.704C6.44576 11.704 5.62524 10.7716 5.62524 9.63403C5.62524 8.4965 6.44576 7.54545 7.4714 7.54545C8.51569 7.54545 9.3362 8.47785 9.3362 9.63403C9.31755 10.7716 8.51569 11.704 7.4714 11.704ZM14.3339 11.704C13.3082 11.704 12.4877 10.7716 12.4877 9.63403C12.4877 8.4965 13.3082 7.54545 14.3339 7.54545C15.3782 7.54545 16.1987 8.47785 16.18 9.63403C16.1614 10.7902 15.3595 11.704 14.3339 11.704Z" fill="white"/>
</svg>
