<svg width="22" height="22" viewBox="0 0 22 22" fill="none" xmlns="http://www.w3.org/2000/svg">
<path fill-rule="evenodd" clip-rule="evenodd" d="M11.036 0C4.92941 0 0 5.04508 0 11.295C0 16.2648 3.16365 20.4815 7.57805 21.9875C8.16664 22.0628 8.31378 21.7616 8.31378 21.4604V19.5026C5.2237 20.1803 4.56155 17.9966 4.56155 17.9966C4.04653 16.7166 3.3108 16.3401 3.3108 16.3401C2.28077 15.6624 3.38437 15.6624 3.38437 15.6624C4.48797 15.7377 5.07656 16.7918 5.07656 16.7918C6.03301 18.5237 7.65162 17.9966 8.31378 17.6954C8.38736 16.9424 8.68165 16.4907 9.04952 16.1895C6.6216 15.8883 4.04653 14.9094 4.04653 10.6173C4.04653 9.41247 4.48797 8.35828 5.15013 7.60528C5.00299 7.30408 4.63512 6.17458 5.22371 4.59329C5.22371 4.59329 6.18016 4.29209 8.24021 5.72278C9.12309 5.49688 10.0795 5.34628 11.036 5.34628C11.9924 5.34628 12.9489 5.49688 13.8318 5.72278C15.9654 4.29209 16.8483 4.59329 16.8483 4.59329C17.4369 6.17458 17.069 7.30408 16.9219 7.60528C17.6576 8.35828 18.0255 9.41247 18.0255 10.6173C18.0255 14.9847 15.4504 15.8883 13.0225 16.1895C13.3903 16.566 13.7582 17.2436 13.7582 18.2978V21.3851C13.7582 21.6863 13.9789 22.0628 14.4939 21.9122C18.9083 20.4062 21.9984 16.1895 21.9984 11.2197C22.072 5.04509 17.1426 0 11.036 0Z" fill="white"/>
</svg>
