<svg width="221" height="91" viewBox="0 0 221 91" fill="none" xmlns="http://www.w3.org/2000/svg">
<g filter="url(#filter0_dd_133_2519)">
<path fill-rule="evenodd" clip-rule="evenodd" d="M116.832 43.0176C115.853 42.6165 115.071 42.0227 114.485 41.2364C113.9 40.4501 113.591 39.5033 113.559 38.396H117.939C118.004 39.0219 118.22 39.4993 118.589 39.8283C118.958 40.1572 119.44 40.3217 120.034 40.3217C120.643 40.3217 121.125 40.1813 121.478 39.9005C121.831 39.6196 122.007 39.2305 122.007 38.733C122.007 38.3158 121.867 37.9708 121.586 37.698C121.305 37.4252 120.96 37.2005 120.551 37.024C120.142 36.8475 119.56 36.6469 118.806 36.4222C117.715 36.0852 116.824 35.7483 116.134 35.4113C115.444 35.0743 114.85 34.5768 114.353 33.9189C113.855 33.2609 113.607 32.4024 113.607 31.3433C113.607 29.7707 114.176 28.5391 115.316 27.6484C116.455 26.7578 117.939 26.3125 119.769 26.3125C121.63 26.3125 123.131 26.7578 124.27 27.6484C125.409 28.5391 126.019 29.7787 126.099 31.3674H121.646C121.614 30.8218 121.414 30.3925 121.045 30.0796C120.676 29.7667 120.202 29.6102 119.624 29.6102C119.127 29.6102 118.726 29.7426 118.421 30.0074C118.116 30.2721 117.964 30.6533 117.964 31.1507C117.964 31.6963 118.22 32.1216 118.734 32.4265C119.247 32.7314 120.05 33.0603 121.141 33.4134C122.232 33.7825 123.119 34.1355 123.801 34.4725C124.483 34.8095 125.072 35.2989 125.57 35.9408C126.067 36.5827 126.316 37.4091 126.316 38.4201C126.316 39.3829 126.071 40.2575 125.582 41.0438C125.092 41.8301 124.382 42.456 123.452 42.9213C122.521 43.3867 121.422 43.6194 120.154 43.6194C118.918 43.6194 117.811 43.4188 116.832 43.0176ZM136.329 39.961V43.4512H134.235C132.743 43.4512 131.579 43.0862 130.745 42.356C129.91 41.6258 129.493 40.4344 129.493 38.7815V33.4378H127.856V30.0197H129.493V26.7461H133.609V30.0197H136.305V33.4378H133.609V38.8296C133.609 39.2308 133.706 39.5197 133.898 39.6962C134.091 39.8727 134.412 39.961 134.861 39.961H136.329ZM141.18 42.8023C140.129 42.2406 139.302 41.4383 138.701 40.3952C138.099 39.3521 137.798 38.1326 137.798 36.7364C137.798 35.3564 138.103 34.1408 138.713 33.0897C139.322 32.0386 140.157 31.2323 141.216 30.6706C142.275 30.1089 143.462 29.8281 144.778 29.8281C146.094 29.8281 147.282 30.1089 148.341 30.6706C149.4 31.2323 150.234 32.0386 150.844 33.0897C151.454 34.1408 151.759 35.3564 151.759 36.7364C151.759 38.1165 151.45 39.3321 150.832 40.3832C150.214 41.4343 149.372 42.2406 148.305 42.8023C147.238 43.3639 146.046 43.6448 144.73 43.6448C143.414 43.6448 142.231 43.3639 141.18 42.8023ZM146.74 39.2158C147.294 38.6381 147.571 37.8116 147.571 36.7365C147.571 35.6613 147.302 34.8349 146.764 34.2572C146.227 33.6795 145.565 33.3906 144.779 33.3906C143.976 33.3906 143.31 33.6755 142.781 34.2451C142.251 34.8148 141.986 35.6453 141.986 36.7365C141.986 37.8116 142.247 38.6381 142.769 39.2158C143.29 39.7935 143.944 40.0823 144.73 40.0823C145.517 40.0823 146.187 39.7935 146.74 39.2158ZM165.9 31.4035C166.839 32.4225 167.308 33.8226 167.308 35.6038V43.4509H163.216V36.1575C163.216 35.2588 162.984 34.5608 162.518 34.0633C162.053 33.5659 161.427 33.3171 160.641 33.3171C159.855 33.3171 159.229 33.5659 158.763 34.0633C158.298 34.5608 158.065 35.2588 158.065 36.1575V43.4509H153.949V30.0194H158.065V31.8007C158.483 31.2069 159.044 30.7375 159.75 30.3925C160.456 30.0475 161.251 29.875 162.133 29.875C163.706 29.875 164.962 30.3845 165.9 31.4035ZM182.763 37.7233H173.447C173.512 38.5578 173.78 39.1957 174.254 39.637C174.727 40.0783 175.309 40.2989 175.999 40.2989C177.026 40.2989 177.74 39.8657 178.141 38.9991H182.522C182.297 39.8817 181.892 40.676 181.307 41.3821C180.721 42.0882 179.987 42.6418 179.104 43.043C178.222 43.4442 177.235 43.6448 176.143 43.6448C174.828 43.6448 173.656 43.3639 172.629 42.8023C171.602 42.2406 170.8 41.4383 170.222 40.3952C169.644 39.3521 169.355 38.1326 169.355 36.7364C169.355 35.3403 169.64 34.1208 170.21 33.0777C170.78 32.0346 171.578 31.2323 172.605 30.6706C173.632 30.1089 174.811 29.8281 176.143 29.8281C177.443 29.8281 178.599 30.1009 179.61 30.6465C180.621 31.1921 181.411 31.9704 181.981 32.9814C182.55 33.9924 182.835 35.1718 182.835 36.5198C182.835 36.9049 182.811 37.3061 182.763 37.7233ZM178.622 35.4319C178.622 34.7258 178.381 34.1642 177.9 33.7469C177.418 33.3297 176.817 33.1211 176.094 33.1211C175.404 33.1211 174.823 33.3217 174.349 33.7229C173.876 34.124 173.583 34.6937 173.471 35.4319H178.622Z" fill="#A7A8AC"/>
<path fill-rule="evenodd" clip-rule="evenodd" d="M72.2768 37.0736L75.7911 43.4524H80.4368L76.5373 36.7607C77.773 36.3916 78.7077 35.7658 79.3416 34.8832C79.9754 34.0006 80.2924 32.9976 80.2924 31.8743C80.2924 30.8794 80.0597 29.9768 79.5943 29.1664C79.129 28.356 78.4269 27.7181 77.4881 27.2527C76.5494 26.7874 75.414 26.5547 74.0821 26.5547H67.1738V43.4524H71.2899V37.0736H72.2768ZM73.8415 34.161H71.29V29.9727H73.8415C74.5958 29.9727 75.1614 30.1572 75.5385 30.5263C75.9156 30.8954 76.1042 31.4009 76.1042 32.0427C76.1042 32.7167 75.9156 33.2383 75.5385 33.6073C75.1614 33.9764 74.5958 34.161 73.8415 34.161Z" fill="#FD627A"/>
<path fill-rule="evenodd" clip-rule="evenodd" d="M86.1409 37.7194H95.4562C95.5044 37.3022 95.5284 36.901 95.5284 36.5159C95.5284 35.1679 95.2436 33.9885 94.6739 32.9775C94.1042 31.9665 93.3139 31.1882 92.303 30.6426C91.292 30.097 90.1366 29.8242 88.8368 29.8242C87.5049 29.8242 86.3254 30.105 85.2984 30.6667C84.2714 31.2284 83.473 32.0307 82.9033 33.0738C82.3337 34.1168 82.0488 35.3364 82.0488 36.7325C82.0488 38.1286 82.3377 39.3482 82.9154 40.3913C83.4931 41.4344 84.2954 42.2367 85.3224 42.7984C86.3495 43.36 87.5209 43.6409 88.8368 43.6409C89.928 43.6409 90.9149 43.4403 91.7975 43.0391C92.6801 42.6379 93.4142 42.0843 93.9999 41.3782C94.5857 40.6721 94.9909 39.8778 95.2155 38.9952H90.8346C90.4335 39.8617 89.7194 40.295 88.6923 40.295C88.0023 40.295 87.4206 40.0744 86.9472 39.6331C86.4738 39.1918 86.205 38.5539 86.1409 37.7194ZM90.5941 33.7469C91.0755 34.1642 91.3162 34.7258 91.3162 35.4319H86.165C86.2774 34.6937 86.5702 34.124 87.0436 33.7229C87.517 33.3217 88.0987 33.1211 88.7887 33.1211C89.5109 33.1211 90.1126 33.3297 90.5941 33.7469Z" fill="#FD627A"/>
<path fill-rule="evenodd" clip-rule="evenodd" d="M99.7876 30.6636C98.8889 31.2253 98.1788 32.0276 97.6573 33.0707C97.1358 34.1138 96.875 35.3253 96.875 36.7054C96.875 38.0854 97.1358 39.301 97.6573 40.3521C98.1788 41.4032 98.8889 42.2136 99.7876 42.7833C100.686 43.3529 101.689 43.6378 102.796 43.6378C103.743 43.6378 104.574 43.4452 105.288 43.0601C106.002 42.6749 106.551 42.1614 106.937 41.5195V43.4452H111.053V25.6328H106.937V31.8671C106.519 31.2413 105.946 30.7438 105.216 30.3748C104.485 30.0057 103.679 29.8211 102.796 29.8211C101.689 29.8211 100.686 30.102 99.7876 30.6636ZM104 33.4062C104.819 33.4062 105.513 33.7031 106.082 34.2969C106.652 34.8906 106.937 35.701 106.937 36.728C106.937 37.755 106.652 38.5654 106.082 39.1592C105.513 39.7529 104.819 40.0498 104 40.0498C103.182 40.0498 102.488 39.7489 101.918 39.1471C101.348 38.5454 101.063 37.731 101.063 36.7039C101.063 35.6769 101.348 34.8706 101.918 34.2848C102.488 33.6991 103.182 33.4062 104 33.4062Z" fill="#FD627A"/>
<path fill-rule="evenodd" clip-rule="evenodd" d="M50.5395 34.4483L46.1436 27.2125L48.4205 23.5039L55.0694 34.4483H50.5395ZM35.5761 44.6211H44.4635L46.6821 48.2407H33.3975L35.5761 44.6211ZM44.4597 26.2296H35.5648L33.3906 22.6016H46.687L44.4597 26.2296ZM44.4536 42.6661H35.5629L31.1611 35.421L35.5629 28.1758H44.4536L48.8552 35.421L44.4536 42.6661ZM31.6652 23.5117L33.8782 27.2045L29.4786 34.4461H25.0225L31.6652 23.5117ZM25.0195 36.3945H29.4705L33.8825 43.6567L31.6674 47.3371L25.0195 36.3945ZM48.4179 47.3424L46.1455 43.635L50.5443 36.3945H55.0689L48.4179 47.3424ZM49.2544 21.1243C49.0779 20.8337 48.7625 20.6562 48.4225 20.6562H31.668C31.3279 20.6562 31.0125 20.8337 30.8361 21.1243L22.4589 34.9136C22.2703 35.2241 22.2702 35.6139 22.4588 35.9244L30.8361 49.7137C31.0125 50.0044 31.3279 50.1818 31.668 50.1818H48.4225C48.7625 50.1818 49.0779 50.0044 49.2544 49.7137L57.6317 35.9244C57.8204 35.6139 57.8204 35.2241 57.6317 34.9136L49.2544 21.1243Z" fill="#FD627A"/>
<path fill-rule="evenodd" clip-rule="evenodd" d="M45.0474 36.9363C44.5934 36.6488 43.9919 36.7836 43.7042 37.2378L41.9812 39.9581C41.6936 40.4122 41.8286 41.0137 42.2827 41.3014C42.4443 41.4037 42.6246 41.4525 42.8027 41.4525C43.1251 41.4525 43.4407 41.2924 43.626 40.9998L45.3489 38.2796C45.6366 37.8254 45.5016 37.224 45.0474 36.9363Z" fill="#FD627A"/>
<path fill-rule="evenodd" clip-rule="evenodd" d="M46.465 34.4353C46.0018 34.1628 45.4049 34.3174 45.1324 34.7808L45.0056 34.9963C44.7331 35.4597 44.8878 36.0563 45.3512 36.3289C45.5062 36.4201 45.6761 36.4635 45.8438 36.4635C46.1774 36.4635 46.5024 36.2918 46.6838 35.9834L46.8105 35.768C47.0831 35.3045 46.9284 34.708 46.465 34.4353Z" fill="#FD627A"/>
</g>
<defs>
<filter id="filter0_dd_133_2519" x="-8" y="-10" width="238" height="110" filterUnits="userSpaceOnUse" color-interpolation-filters="sRGB">
<feFlood flood-opacity="0" result="BackgroundImageFix"/>
<feColorMatrix in="SourceAlpha" type="matrix" values="0 0 0 0 0 0 0 0 0 0 0 0 0 0 0 0 0 0 127 0" result="hardAlpha"/>
<feOffset dx="8" dy="10"/>
<feGaussianBlur stdDeviation="15"/>
<feColorMatrix type="matrix" values="0 0 0 0 0.0196078 0 0 0 0 0.027451 0 0 0 0 0.109804 0 0 0 0.6 0"/>
<feBlend mode="normal" in2="BackgroundImageFix" result="effect1_dropShadow_133_2519"/>
<feColorMatrix in="SourceAlpha" type="matrix" values="0 0 0 0 0 0 0 0 0 0 0 0 0 0 0 0 0 0 127 0" result="hardAlpha"/>
<feOffset dx="2" dy="2"/>
<feGaussianBlur stdDeviation="4"/>
<feColorMatrix type="matrix" values="0 0 0 0 0.0196078 0 0 0 0 0.027451 0 0 0 0 0.109804 0 0 0 0.6 0"/>
<feBlend mode="normal" in2="effect1_dropShadow_133_2519" result="effect2_dropShadow_133_2519"/>
<feBlend mode="normal" in="SourceGraphic" in2="effect2_dropShadow_133_2519" result="shape"/>
</filter>
</defs>
</svg>
