<svg width="22" height="23" viewBox="0 0 22 23" fill="none" xmlns="http://www.w3.org/2000/svg">
<g clip-path="url(#clip0_1_636)">
<path fill-rule="evenodd" clip-rule="evenodd" d="M11.0002 0.996094C4.9255 0.996094 0.000976562 5.92138 0.000976562 11.9961C0.000976562 18.0708 4.9255 22.9961 11.0002 22.9961C17.0749 22.9961 21.9994 18.0708 21.9994 11.9961C21.9994 5.92138 17.0749 0.996094 11.0002 0.996094ZM10.0304 11.4232C9.84208 11.7399 6.90379 11.7931 5.30081 10.8947C3.69783 9.99639 4.47662 7.2496 6.10252 6.52833C7.72842 5.80705 10.2188 11.1065 10.0304 11.4232ZM7.17254 16.2349C8.77554 15.3365 10.1972 12.8399 10.0088 12.5232C9.82043 12.2065 3.84722 11.6503 3.67777 13.3777C3.50833 15.1051 5.56956 17.1332 7.17254 16.2349ZM10.9779 13.0898C11.3547 13.0898 12.8713 15.5333 12.8713 17.33C12.8713 19.1266 10.0312 19.8454 8.57481 18.8392C7.11835 17.8331 10.6012 13.0898 10.9779 13.0898ZM16.6997 13.0896C15.0967 12.1912 12.1584 12.2444 11.9701 12.5611C11.7817 12.8778 14.2721 18.1772 15.898 17.456C17.5239 16.7347 18.3027 13.9879 16.6997 13.0896ZM11.9924 11.4633C11.8041 11.1465 13.2257 8.64992 14.8287 7.75154C16.4317 6.85319 18.4929 8.88129 18.3235 10.6087C18.154 12.3361 12.1808 11.78 11.9924 11.4633ZM9.12891 6.65058C9.12891 8.44728 10.6455 10.8907 11.0222 10.8907C11.399 10.8907 14.8818 6.14747 13.4254 5.14131C11.9689 4.13515 9.12891 4.85387 9.12891 6.65058Z" fill="white"/>
</g>
<defs>
<clipPath id="clip0_1_636">
<rect width="21.9985" height="22" fill="white" transform="translate(0 0.996094)"/>
</clipPath>
</defs>
</svg>
