<svg width="22" height="23" viewBox="0 0 22 23" fill="none" xmlns="http://www.w3.org/2000/svg">
<g clip-path="url(#clip0_1_622)">
<path fill-rule="evenodd" clip-rule="evenodd" d="M21.9985 12C21.9985 18.0751 17.0739 23 10.9992 23C4.92452 23 0 18.0751 0 12C0 5.92487 4.92452 1 10.9992 1C17.0739 1 21.9985 5.92487 21.9985 12ZM5.69903 9.42188H8.09115C8.19732 9.42188 8.28334 9.50794 8.28334 9.61408V17.2995C8.28334 17.4057 8.19732 17.4917 8.09115 17.4917H5.69903C5.59286 17.4917 5.50684 17.4057 5.50684 17.2995V9.61408C5.50684 9.50794 5.59286 9.42188 5.69903 9.42188ZM6.89589 5.60156C6.02549 5.60156 5.31738 6.30895 5.31738 7.17844C5.31738 8.04832 6.02549 8.75598 6.89589 8.75598C7.76559 8.75598 8.47312 8.04829 8.47312 7.17844C8.47316 6.30895 7.76559 5.60156 6.89589 5.60156ZM12.0737 10.1128C12.5045 9.64352 13.2147 9.23047 14.1755 9.23047C16.8698 9.23047 17.2331 11.1782 17.2331 13.0836V17.2991C17.2331 17.4053 17.147 17.4913 17.0409 17.4913H14.6531C14.5469 17.4913 14.4609 17.4053 14.4609 17.2991V13.5625C14.4609 12.5163 14.3836 11.7161 13.4109 11.7161C12.5177 11.7161 12.1697 12.2152 12.1697 13.4966V17.2991C12.1697 17.4053 12.0837 17.4913 11.9775 17.4913H9.59063C9.48446 17.4913 9.39844 17.4053 9.39844 17.2991V9.61369C9.39844 9.50755 9.48446 9.42148 9.59063 9.42148H11.8815C11.9877 9.42148 12.0737 9.50755 12.0737 9.61369V10.1128Z" fill="white"/>
</g>
<defs>
<clipPath id="clip0_1_622">
<rect width="21.9985" height="22" fill="white" transform="translate(0 0.996094)"/>
</clipPath>
</defs>
</svg>
