<svg width="160" height="175" viewBox="0 0 160 175" fill="none" xmlns="http://www.w3.org/2000/svg">
<g filter="url(#filter0_d_358_2758)">
<mask id="mask0_358_2758" style="mask-type:luminance" maskUnits="userSpaceOnUse" x="7" y="12" width="139" height="150">
<path d="M7.09662 12.3111H145.49V161.001H7.09662V12.3111Z" fill="white"/>
</mask>
<g mask="url(#mask0_358_2758)">
<path d="M140.615 130.915C144.777 140.69 146.301 150.448 145.084 161.001C143.707 151.729 139.847 141.555 134.599 133.777C136.579 132.774 138.576 131.826 140.615 130.915Z" fill="#D8D8D8"/>
<path d="M143.297 127.05C143.263 127.737 143.163 128.417 143.129 129.105H143.077C142.245 129.003 141.382 129.169 140.648 129.575L140.626 129.574C140.636 128.934 140.649 128.308 140.648 127.613C141.535 127.454 142.411 127.208 143.297 127.05Z" fill="#725F3A"/>
<path d="M143.298 127.048C142.411 127.205 141.535 127.452 140.648 127.61C139.146 126.032 137.871 124.345 136.9 122.428L136.923 122.416C137.713 121.239 138.587 120.132 139.535 119.106C140.81 121.756 142.022 124.398 143.298 127.048Z" fill="#9A7443"/>
<path d="M134.599 133.77C133.783 134.182 132.971 134.604 132.159 135.036C132.37 134.046 132.155 133.666 132.366 132.676C135.28 131.243 138.031 129.525 140.649 127.603C140.649 128.298 140.637 128.925 140.627 129.565C140.621 129.998 140.615 130.438 140.615 130.908C138.575 131.819 136.579 132.767 134.599 133.77Z" fill="#725F3A"/>
<path d="M136.9 122.427C137.872 124.344 139.146 126.031 140.649 127.609C138.031 129.531 135.28 131.248 132.366 132.681C132.179 131.926 132.037 131 131.851 130.245C131.71 129.674 131.559 129.081 131.179 128.633C130.798 128.185 130.037 127.968 129.526 128.258C129.389 128.086 129.306 127.595 129.169 127.423C131.197 125.558 133.215 123.996 135.32 122.313C135.686 122.02 136.055 121.724 136.427 121.422C136.576 121.764 136.733 122.099 136.9 122.427Z" fill="#9A7443"/>
<path d="M135.273 122.253L135.319 122.311C133.214 123.994 131.196 125.557 129.168 127.421C123.543 120.009 116.204 112.998 108.18 108.287C118.431 110.229 127.681 115.096 135.273 122.253Z" fill="#D8D8D8"/>
<path d="M132.366 132.683C132.154 133.674 132.37 134.053 132.158 135.044C121.256 141.823 110.421 148.296 99.8148 155.531C99.8122 155.528 99.8096 155.524 99.807 155.521C99.8056 155.519 99.8043 155.518 99.803 155.516C99.6945 155.368 99.5853 155.219 99.4774 155.07C109.809 147.201 121.176 139.277 132.366 132.683Z" fill="#725F3A"/>
<path d="M131.851 130.248C132.037 131.004 132.179 131.929 132.365 132.685C121.175 139.278 109.809 147.202 99.4771 155.071C98.1694 153.271 96.9009 151.344 95.7946 149.431C107.858 143.778 119.249 136.739 129.526 128.261C130.036 127.971 130.798 128.188 131.179 128.637C131.558 129.084 131.71 129.678 131.851 130.248Z" fill="#9A7443"/>
<path d="M113.496 126.825C114.486 129.853 115.324 133.033 116.066 136.131C111.42 135.174 106.197 134.987 101.577 136.067C100.431 130.398 99.3464 124.741 98.8246 118.981C97.6594 115.687 96.3688 112.589 94.9807 109.383L95.0395 109.274C96.0209 109.91 97.1697 110.389 98.1864 110.97C100.482 112.283 102.424 114.121 104.272 116.004C107.506 119.297 110.695 123.162 113.496 126.825Z" fill="#F16882"/>
<path d="M101.14 59.2562C98.3358 47.899 95.6295 36.532 93.1063 24.9955C93.2652 24.1201 93.4306 23.1936 93.5902 22.318C99.5068 32.9155 106.466 42.907 114.206 52.3118C112.818 63.9227 110.759 75.3787 108.046 86.7019C105.71 77.5043 103.393 68.3832 101.14 59.2562Z" fill="#F16882"/>
<path d="M116.066 136.133C112.447 137.047 109.136 139.058 105.604 140.303C102.072 141.548 98.2759 142.244 94.7001 141.152C97.22 139.904 99.6026 138.073 101.577 136.07C106.197 134.989 111.419 135.176 116.066 136.133Z" fill="#BD4A4D"/>
<path d="M101.14 59.2528C103.394 68.3798 105.711 77.5009 108.046 86.6985C99.8791 89.6153 91.6532 92.3712 83.3749 94.9656C76.3957 97.1528 69.3787 99.2248 62.329 101.18C60.3635 94.9853 58.963 88.5475 58.0025 82.1373C66.6646 80.2424 75.2979 78.5503 84.0921 77.4146C90.1317 71.7091 95.8279 65.6402 101.14 59.2528Z" fill="#F16882"/>
<path d="M47.0257 52.7238C47.0486 52.4341 47.063 52.1425 47.0356 51.8601C47.0166 51.6665 46.9734 51.4573 46.8858 51.2756C46.8832 51.2585 46.8799 51.2415 46.8773 51.2245C46.8688 51.0709 46.8512 50.9179 46.8139 50.7701C46.7812 50.64 46.7302 50.5185 46.6622 50.4079C46.6524 50.3857 46.6446 50.3615 46.6348 50.3392C46.5458 50.1496 46.3811 50.0202 46.1869 49.9927C46.1686 49.9849 46.1509 49.9758 46.1319 49.9685C45.9999 49.9208 45.8593 49.9084 45.7259 49.9293C45.5873 49.8985 45.4402 49.9005 45.297 49.9267C44.9321 49.9934 44.6392 50.1895 44.4045 50.4498C44.4019 50.4517 44.3993 50.4537 44.3966 50.4563C44.2953 50.4498 44.1992 50.5053 44.1345 50.5929C43.342 51.6685 42.8451 52.9585 42.6868 54.2865C42.4822 54.9691 42.3639 55.6739 42.4227 56.386C42.4711 56.9738 42.6274 57.5583 42.9373 58.0644C43.0085 58.1815 43.089 58.2978 43.1818 58.4031C43.3243 58.6287 43.5159 58.8333 43.7624 58.9412C43.7866 58.9516 43.8108 58.9609 43.835 58.9694C43.9292 59.0909 44.0514 59.1838 44.2168 59.2204C44.53 59.289 44.8347 59.0746 45.0753 58.8451C45.6291 58.4698 45.9541 57.8401 46.1659 57.1654C46.2542 57.0562 46.3274 56.9332 46.3856 56.8051C46.5661 56.4062 46.6701 55.9701 46.7603 55.5432C46.9133 54.8253 46.9937 54.0903 46.9989 53.3561C47.0166 53.1455 47.0251 52.935 47.0257 52.7238ZM66.1519 64.1C66.4154 63.9627 66.267 63.6011 66.0107 63.5803C65.9525 63.5756 65.895 63.571 65.8368 63.5665C65.7113 63.5567 65.6021 63.6587 65.5687 63.7751C64.7475 64.2007 63.9086 64.608 62.9985 64.8016C62.5185 64.903 62.0223 64.9376 61.5339 64.8827C61.0526 64.8277 60.608 64.6545 60.1869 64.421C59.7011 64.1517 59.2389 63.847 58.7119 63.662C58.449 63.5697 58.2391 63.9444 58.4405 64.1281C58.4876 64.1713 58.5347 64.2144 58.5818 64.2569C58.6674 64.3347 58.7661 64.3465 58.8518 64.3184C59.2016 64.4799 59.5285 64.6911 59.8639 64.8794C60.3177 65.1344 60.795 65.3331 61.3129 65.411C62.3897 65.5732 63.4646 65.3305 64.4585 64.9173C65.0384 64.6767 65.5955 64.3903 66.1519 64.1ZM83.3362 57.5662C83.8946 56.152 84.1169 54.5749 84.0483 53.0599C84.0306 52.6721 83.9914 52.287 83.9358 51.9032C83.8966 51.6326 83.8515 51.3468 83.724 51.1003C83.6834 50.9532 83.6174 50.8133 83.5147 50.6871C83.2911 50.4119 82.9243 50.2706 82.5745 50.2719C82.2195 50.2738 81.9194 50.4079 81.6676 50.6125C81.6284 50.6159 81.5892 50.6237 81.5512 50.6381C81.3309 50.7204 81.1995 50.9598 81.0654 51.1408C80.7869 51.5175 80.5339 51.9124 80.3083 52.323C79.8565 53.1423 79.508 54.0236 79.2811 54.9312C79.0594 55.8178 78.9228 56.7502 79.0509 57.661C79.1359 58.2677 79.4956 59.4512 80.2122 59.5591C80.2965 59.629 80.3946 59.6892 80.5097 59.7343C81.1485 59.9828 81.8697 59.6029 82.3306 59.1713C82.7975 58.7339 83.1041 58.1547 83.3362 57.5662ZM48.9363 17.6497C63.5974 20.477 78.3069 23.0237 93.1079 24.9891C95.6311 36.5256 98.3373 47.8926 101.142 59.2498C95.8292 65.6372 90.1329 71.7061 84.0934 77.4116C75.2992 78.5473 66.6659 80.2394 58.0038 82.1343C57.9508 82.0741 57.9913 82.0552 58.0038 82.1343C45.5448 71.1994 32.9734 60.09 20.5144 49.1545C30.8562 39.5044 40.3474 28.8612 48.9363 17.6497Z" fill="#F6A8B9"/>
<path d="M98.826 118.982C99.3477 124.742 100.432 130.399 101.579 136.069C99.6047 138.072 97.2221 139.903 94.7022 141.151C93.2291 135.389 91.7089 129.793 90.2358 124.032C92.8538 119.099 91.2152 112.611 93.1938 107.389C93.6148 108.192 94.2772 108.781 95.0409 109.275L94.982 109.385C96.3701 112.59 97.6608 115.688 98.826 118.982Z" fill="#F6A8B9"/>
<path d="M93.5896 22.314C93.4301 23.1895 93.2647 24.116 93.1058 24.9915C78.3047 23.0261 63.5953 20.4793 48.9341 17.6521C52.1085 16.0717 55.026 14.1181 58.0912 12.3082C58.0971 12.3095 58.103 12.3102 58.1082 12.3116C58.1089 12.3116 58.1102 12.3116 58.1108 12.3121C58.1213 12.3135 58.1317 12.3154 58.1422 12.3174C58.1448 12.318 58.1468 12.3187 58.1494 12.3187L58.152 12.3194C70.4828 14.5973 81.8545 17.8882 93.5896 22.314Z" fill="#F16882"/>
<path d="M44.4059 95.5321C49.6059 98.2743 54.8131 100.927 60.0131 103.67L60.0223 103.71C69.3048 101.62 78.526 99.5859 87.8092 97.4949L82.5537 125.583V125.583C81.5919 125.517 80.6261 125.453 79.6715 125.453C77.4988 127.203 75.1352 129.836 72.9631 131.585C70.3615 132.357 67.6264 133.865 65.0098 134.642C63.7871 134.606 62.5428 134.523 61.3208 134.487C58.8617 132.482 56.3424 130.452 53.8428 128.43H53.8421C52.5815 127.41 51.3255 126.391 50.0852 125.38C48.9429 115.219 47.1193 105.393 44.4059 95.5321Z" fill="#F16882"/>
<path d="M84.1446 125.712L84.144 125.709C84.1453 125.713 84.1453 125.712 84.1433 125.706C84.1427 125.704 84.1414 125.7 84.1401 125.695V125.694C84.1414 125.698 84.1401 125.695 84.1381 125.687C84.1374 125.685 84.1368 125.683 84.1361 125.68L84.1355 125.677C84.1401 125.673 84.144 125.671 84.1459 125.67L84.1355 125.677H84.1348C83.6111 125.652 83.0848 125.615 82.5565 125.58V125.579L87.812 97.4916C87.527 107.797 86.5795 117.043 84.5186 127.2H84.518C84.3964 126.704 84.2715 126.208 84.1446 125.712Z" fill="#BD4A4D"/>
<path d="M84.1333 125.681H84.134L84.1346 125.683C84.1353 125.686 84.1359 125.688 84.1366 125.69C84.1386 125.698 84.1399 125.701 84.1386 125.698V125.698C84.1399 125.703 84.1412 125.708 84.1425 125.713L84.1431 125.715C84.27 126.211 84.3949 126.707 84.5165 127.203C85.6359 131.747 86.5427 136.298 87.2509 140.939C86.4532 143.347 85.6372 146.094 85.0997 148.566C83.8371 148.205 82.5536 147.986 81.2911 147.625C80.005 145.749 78.49 144.156 77.1058 142.351C79.2177 136.938 79.9749 131.209 79.6728 125.453C80.6274 125.452 81.5932 125.517 82.555 125.583C83.0833 125.618 83.6096 125.655 84.1333 125.681Z" fill="#F16882"/>
<path d="M83.3729 94.964C84.6446 95.9128 86.3727 96.8151 87.8092 97.4892C78.526 99.5802 69.3049 101.614 60.0223 103.705L60.0131 103.664C54.8131 100.921 49.6059 98.2685 44.4059 95.5263C47.0376 94.8267 46.746 94.4658 49.2888 94.1533C53.6349 96.4953 57.981 98.8374 62.327 101.179C69.3768 99.2232 76.3938 97.1511 83.3729 94.964Z" fill="#BD4A4D"/>
<path d="M84.0456 53.0626C84.1143 54.5776 83.8919 56.1546 83.3336 57.5689C83.1014 58.1573 82.7948 58.7366 82.328 59.1741C81.867 59.6056 81.1458 59.9855 80.507 59.737C80.3919 59.6919 80.2939 59.6318 80.2095 59.5618C79.4929 59.4539 79.1333 58.2704 79.0483 57.6637C78.9201 56.7528 79.0568 55.8205 79.2784 54.9339C79.5053 54.0263 79.8538 53.145 80.3056 52.3257C80.5312 51.915 80.7842 51.5202 81.0628 51.1435C81.1968 50.9625 81.3282 50.7232 81.5486 50.6408C81.5865 50.6263 81.6257 50.6185 81.665 50.6152C81.9167 50.4106 82.2168 50.2766 82.5718 50.2746C82.9216 50.2733 83.2884 50.4145 83.5121 50.6898C83.6147 50.816 83.6808 50.9559 83.7213 51.103C83.8488 51.3495 83.8939 51.6353 83.9331 51.906C83.9887 52.2898 84.0279 52.6748 84.0456 53.0626Z" fill="#373535"/>
<path d="M77.1057 142.347C78.4898 144.151 80.0048 145.745 81.2909 147.621C82.5535 147.982 83.837 148.2 85.0995 148.561C80.233 149.191 75.0722 148.481 70.5162 146.659C72.7282 145.333 75.0807 143.943 77.1057 142.347Z" fill="#BD4A4D"/>
<path d="M77.1057 142.352C75.0807 143.948 72.7282 145.338 70.5162 146.664C71.0746 141.839 71.9789 136.332 72.9642 131.586C75.1363 129.837 77.4999 127.204 79.6726 125.454C79.9747 131.21 79.2176 136.939 77.1057 142.352Z" fill="#F6A8B9"/>
<path d="M66.3235 147.753C66.3477 147.755 66.3726 147.756 66.3974 147.758C66.3928 147.726 66.3882 147.695 66.3837 147.664C66.3863 147.646 66.3843 147.628 66.3778 147.612C66.5975 148.086 66.7302 148.642 66.9519 149.115C65.2107 150.13 63.2459 151.054 61.3386 151.704C62.0971 150.554 62.7444 149.446 63.5035 148.296C64.3986 147.895 65.346 147.702 66.3235 147.753Z" fill="#BD4A4D"/>
<path d="M61.3382 151.7C58.8915 152.32 56.7443 152.979 54.3964 153.905C56.5102 150.157 57.2693 145.386 56.8339 141.105C56.3978 136.824 55.0966 132.513 53.7981 128.41C53.802 128.411 53.8059 128.413 53.8099 128.413C53.8105 128.414 53.8112 128.414 53.8112 128.414C53.8131 128.415 53.8151 128.415 53.8164 128.416C53.8275 128.419 53.8367 128.422 53.8426 128.424H53.8432C56.3428 130.446 58.8621 132.476 61.3212 134.482C63.8869 138.446 65.6621 142.963 66.3741 147.6C66.3774 147.619 66.38 147.64 66.3833 147.66C66.378 147.695 66.3558 147.728 66.3231 147.749C65.3456 147.698 64.3982 147.891 63.5031 148.291C62.744 149.441 62.0967 150.55 61.3382 151.7Z" fill="#F16882"/>
<path d="M66.0103 63.5809C66.2666 63.6018 66.415 63.9633 66.1515 64.1007C65.5951 64.391 65.038 64.6773 64.4581 64.918C63.4642 65.3312 62.3893 65.5738 61.3124 65.4116C60.7946 65.3338 60.3173 65.135 59.8635 64.88C59.5281 64.6917 59.2012 64.4805 58.8514 64.319C58.7657 64.3472 58.667 64.3354 58.5813 64.2576C58.5343 64.2151 58.4872 64.1719 58.4401 64.1288C58.2387 63.945 58.4486 63.5704 58.7114 63.6626C59.2384 63.8476 59.7007 64.1523 60.1865 64.4217C60.6076 64.6551 61.0522 64.8284 61.5334 64.8833C62.0218 64.9382 62.5181 64.9036 62.998 64.8022C63.9082 64.6087 64.7471 64.2013 65.5683 63.7757C65.6016 63.6593 65.7108 63.5573 65.8364 63.5671C65.8946 63.5717 65.9521 63.5763 66.0103 63.5809Z" fill="#373535"/>
<path d="M62.3282 101.18C57.9821 98.839 53.636 96.4969 49.2899 94.1549C45.0164 91.8521 40.7429 89.5492 36.4694 87.2464C31.5387 79.4676 26.5368 71.6889 21.6062 63.9101C21.2897 58.9925 20.8294 54.075 20.5123 49.1574C32.9713 60.093 45.5427 71.2024 58.0017 82.1373C58.9622 88.5475 60.3627 94.9853 62.3282 101.18Z" fill="#F16882"/>
<path d="M48.9353 17.6479C45.4621 16.5704 42.2426 15.4759 38.6451 14.9404C45.128 14.0616 51.6102 13.1829 58.0924 12.3041C55.0272 14.1139 52.1097 16.0676 48.9353 17.6479Z" fill="#F16882"/>
<path d="M56.8348 141.105C57.2702 145.386 56.5111 150.157 54.3972 153.905C51.9839 148.998 50.0623 143.91 48.9076 138.565C48.682 137.519 48.48 136.446 48.6016 135.383C48.7925 133.715 49.7517 132.249 50.6834 130.854C51.4164 129.756 52.6973 129.137 53.799 128.41C55.0975 132.513 56.3987 136.824 56.8348 141.105Z" fill="#F6A8B9"/>
<path d="M47.0355 51.8677C47.063 52.1501 47.0486 52.4417 47.0257 52.7314C47.025 52.9426 47.0165 53.1531 46.9989 53.3636C46.9936 54.0979 46.9132 54.8329 46.7602 55.5507C46.67 55.9777 46.566 56.4138 46.3856 56.8127C46.3274 56.9408 46.2542 57.0638 46.1659 57.173C45.954 57.8477 45.6291 58.4773 45.0753 58.8527C44.8347 59.0821 44.53 59.2966 44.2168 59.228C44.0514 59.1913 43.9291 59.0985 43.8349 58.9769C43.8107 58.9684 43.7865 58.9592 43.7624 58.9488C43.5159 58.8409 43.3243 58.6363 43.1817 58.4107C43.0889 58.3054 43.0085 58.1891 42.9372 58.072C42.6273 57.5659 42.471 56.9814 42.4226 56.3936C42.3638 55.6815 42.4821 54.9767 42.6868 54.2941C42.845 52.9661 43.3419 51.6761 44.1344 50.6005C44.1991 50.5129 44.2952 50.4574 44.3966 50.4639C44.3992 50.4612 44.4018 50.4593 44.4044 50.4574C44.6392 50.1971 44.9321 50.0009 45.2969 49.9343C45.4401 49.9081 45.5872 49.9061 45.7258 49.9369C45.8592 49.9159 45.9998 49.9284 46.1319 49.9761C46.1508 49.9833 46.1685 49.9924 46.1868 50.0003C46.381 50.0277 46.5458 50.1572 46.6347 50.3468C46.6445 50.369 46.6523 50.3932 46.6621 50.4155C46.7301 50.526 46.7811 50.6476 46.8138 50.7777C46.8511 50.9255 46.8688 51.0785 46.8773 51.2321C46.8799 51.2491 46.8831 51.2661 46.8858 51.2832C46.9734 51.4649 47.0165 51.6741 47.0355 51.8677Z" fill="#373535"/>
<path d="M38.644 14.9483C42.2415 15.4838 45.461 16.5784 48.9342 17.6559C40.3453 28.8673 30.8542 39.5106 20.5123 49.1606C26.5564 37.757 32.6006 26.3527 38.644 14.9483Z" fill="#F16882"/>
<path d="M42.3288 95.2291C42.3307 95.2245 42.3327 95.22 42.3347 95.2147C41.5821 98.8154 40.6334 102.128 39.8808 105.729C39.8808 105.723 39.8801 105.719 39.8801 105.715V105.728C36.6659 102.907 31.9046 101.484 28.1862 99.3725C21.0371 95.3128 16.8322 88.1944 10.2147 83.3161C10.1937 77.9762 15.5729 74.1048 15.8704 68.772C21.3921 71.7614 25.7388 76.5018 29.7364 81.3435C33.734 86.1858 37.4903 91.2198 42.3347 95.2147C42.3327 95.22 42.3301 95.2245 42.3288 95.2291ZM42.3216 95.2455C42.3235 95.2422 42.3249 95.2383 42.3268 95.2337C42.3249 95.2383 42.3229 95.2428 42.3216 95.2455ZM42.3183 95.254C42.319 95.2527 42.3196 95.25 42.3209 95.2474C42.3196 95.2507 42.3183 95.2527 42.3183 95.254Z" fill="#F16882"/>
<path d="M39.88 105.728V105.729H39.8793C27.8826 102.198 16.7261 96.2766 7.09698 88.2984C7.76652 86.3715 8.81594 84.801 10.2145 83.3161C16.832 88.1944 21.0369 95.3128 28.186 99.3725C31.9044 101.484 36.6657 102.907 39.88 105.728Z" fill="#BD4A4D"/>
<path d="M15.8585 68.7736C15.8617 68.7722 15.8657 68.7716 15.8702 68.7703C15.5727 74.103 10.1936 77.9744 10.2145 83.3144C8.81594 84.7992 7.76652 86.3698 7.09698 88.2966C7.47883 82.4147 8.56225 76.5791 10.3159 70.9522L10.3479 70.8874C11.719 69.4862 13.91 68.7291 15.8702 68.7703C15.6767 68.786 15.6813 68.8259 15.8585 68.7736Z" fill="#F6A8B9"/>
</g>
<path d="M20.5109 49.1565C30.8527 39.5064 40.3439 28.8632 48.9327 17.6518" stroke="#373535" stroke-width="0.130248" stroke-miterlimit="10"/>
<path d="M48.9327 17.6479C63.5938 20.4751 78.3033 23.0219 93.1043 24.9873" stroke="#373535" stroke-width="0.130248" stroke-miterlimit="10"/>
<path d="M93.1049 24.9953C95.628 36.5317 98.3343 47.8987 101.139 59.256C103.392 68.383 105.709 77.5041 108.045 86.7017" stroke="#373535" stroke-width="0.130248" stroke-miterlimit="10"/>
<path d="M20.5109 49.1542C32.9699 60.0897 45.5413 71.1992 58.0003 82.134" stroke="#373535" stroke-width="0.130248" stroke-miterlimit="10"/>
<path d="M20.5109 49.1538C20.828 54.0714 21.2883 58.9889 21.6047 63.9065" stroke="#373535" stroke-width="0.130248" stroke-miterlimit="10"/>
<path d="M21.6036 63.9086C26.5343 71.6873 31.5362 79.4661 36.4668 87.2449" stroke="#373535" stroke-width="0.130248" stroke-miterlimit="10"/>
<path d="M21.6045 63.9087C21.6651 64.0037 21.2841 63.9634 21.6045 63.9087Z" stroke="#373535" stroke-width="0.130248" stroke-miterlimit="10"/>
<path d="M36.468 87.2461C40.7415 89.549 45.015 91.8518 49.2885 94.1546C53.6346 96.4967 57.9807 98.8388 62.3268 101.18" stroke="#373535" stroke-width="0.130248" stroke-miterlimit="10"/>
<path d="M58.001 82.137C58.9615 88.5473 60.362 94.985 62.3275 101.18" stroke="#373535" stroke-width="0.130248" stroke-miterlimit="10"/>
<path d="M58.0001 82.134C57.9876 82.0544 57.9468 82.0735 58.0001 82.134Z" stroke="#373535" stroke-width="0.130248" stroke-miterlimit="10"/>
<path d="M58.001 82.134C66.6631 80.2392 75.2964 78.5471 84.0906 77.4113" stroke="#373535" stroke-width="0.130248" stroke-miterlimit="10"/>
<path d="M101.2 59.1824C101.179 59.2066 101.159 59.2308 101.139 59.255C95.8265 65.6424 90.1302 71.7113 84.0906 77.4167" stroke="#373535" stroke-width="0.130248" stroke-miterlimit="10"/>
<path d="M62.3275 101.18C69.3772 99.2245 76.3942 97.1525 83.3733 94.9654C91.6516 92.371 99.8776 89.615 108.045 86.6982" stroke="#373535" stroke-width="0.130248" stroke-miterlimit="10"/>
<path d="M20.5109 49.1565C26.555 37.7528 32.5991 26.3485 38.6426 14.9442" stroke="#373535" stroke-width="0.130248" stroke-miterlimit="10"/>
<path d="M38.6427 14.9424C45.1255 14.0637 51.6077 13.1849 58.0899 12.3061" stroke="#373535" stroke-width="0.130248" stroke-miterlimit="10"/>
<path d="M48.9451 17.6594L48.9327 17.647" stroke="#373535" stroke-width="0.130248" stroke-miterlimit="10"/>
<path d="M48.9343 17.6477C48.928 17.6415 48.9218 17.6353 48.9218 17.6353" stroke="#373535" stroke-width="0.130248" stroke-miterlimit="10"/>
<path d="M48.9327 17.6477C52.1071 16.0674 55.0245 14.1137 58.0897 12.3039" stroke="#373535" stroke-width="0.130248" stroke-miterlimit="10"/>
<path d="M38.6427 14.9401C42.2401 15.4756 45.4597 16.5702 48.9329 17.6477" stroke="#373535" stroke-width="0.130248" stroke-miterlimit="10"/>
<path d="M58.1506 12.3152C70.4814 14.5932 81.8531 17.884 93.5882 22.3098" stroke="#373535" stroke-width="0.130248" stroke-miterlimit="10"/>
<path d="M58.1093 12.3109C58.1198 12.3122 58.1303 12.3142 58.1408 12.3162" stroke="#373535" stroke-width="0.130248" stroke-miterlimit="10"/>
<path d="M58.1083 12.3152C58.1093 12.3152 58.1112 12.3152 58.1122 12.3162" stroke="#373535" stroke-width="0.130248" stroke-miterlimit="10"/>
<path d="M58.114 12.3162H58.1093" stroke="#373535" stroke-width="0.130248" stroke-miterlimit="10"/>
<path d="M58.1572 12.3201C58.1572 12.3201 58.1564 12.3201 58.1506 12.3192" stroke="#373535" stroke-width="0.130248" stroke-miterlimit="10"/>
<path d="M58.0906 12.3088C58.0965 12.3102 58.1024 12.3108 58.1077 12.3122L58.1143 12.3128C58.136 12.3167 58.1452 12.3181 58.14 12.3174C58.1406 12.3174 58.1413 12.3181 58.1419 12.3181C58.1446 12.3187 58.1465 12.3193 58.1492 12.3193L58.1518 12.3201" stroke="#373535" stroke-width="0.130248" stroke-miterlimit="10"/>
<path d="M58.0901 12.3081C58.075 12.3055 58.0592 12.3029 58.0592 12.3029C58.0519 12.3015 58.046 12.3003 58.0407 12.2995C58.0269 12.2969 58.0256 12.2969 58.0289 12.2969C58.0256 12.2969 58.0236 12.2963 58.0236 12.2963" stroke="#373535" stroke-width="0.130248" stroke-miterlimit="10"/>
<path d="M93.5887 22.3098C93.4292 23.1854 93.2637 24.1119 93.1049 24.9873" stroke="#373535" stroke-width="0.130248" stroke-miterlimit="10"/>
<path d="M93.5892 22.3127C99.5058 32.9102 106.465 42.9016 114.205 52.3064" stroke="#373535" stroke-width="0.130248" stroke-miterlimit="10"/>
<path d="M114.205 52.3115C112.817 63.9224 110.758 75.3784 108.045 86.7017" stroke="#373535" stroke-width="0.130248" stroke-miterlimit="10"/>
<path d="M44.4391 95.6133L44.4365 95.6068C44.4351 95.6041 44.4338 95.5996 44.4312 95.5937C44.4358 95.6048 44.4345 95.6015 44.4266 95.5813C44.4227 95.5721 44.4188 95.561 44.4129 95.5473L44.4044 95.525C47.1179 105.386 48.9414 115.212 50.0837 125.373C50.0902 125.427 50.0961 125.481 50.102 125.534" stroke="#373535" stroke-width="0.130248" stroke-miterlimit="10"/>
<path d="M44.3709 95.4419C44.3709 95.4419 44.3716 95.4432 44.3729 95.4464C44.3709 95.4425 44.3716 95.4432 44.3748 95.4529C44.3761 95.4549 44.3774 95.4581 44.3787 95.4614C44.3755 95.4529 44.3787 95.4621 44.3891 95.4888C44.3937 95.4998 44.3989 95.5135 44.4054 95.5298" stroke="#373535" stroke-width="0.130248" stroke-miterlimit="10"/>
<path d="M53.8428 128.427C56.3425 130.449 58.8617 132.479 61.3208 134.485" stroke="#373535" stroke-width="0.130248" stroke-miterlimit="10"/>
<path d="M50.0736 125.37C50.0775 125.373 50.0808 125.376 50.0847 125.379C51.3251 126.39 52.5811 127.408 53.8417 128.428" stroke="#373535" stroke-width="0.130248" stroke-miterlimit="10"/>
<path d="M44.4044 95.5298C47.0361 94.8302 46.7445 94.4693 49.2873 94.1567" stroke="#373535" stroke-width="0.130248" stroke-miterlimit="10"/>
<path d="M44.4044 95.5271C49.6044 98.2693 54.8116 100.922 60.0116 103.665" stroke="#373535" stroke-width="0.130248" stroke-miterlimit="10"/>
<path d="M59.8782 103.74C59.9266 103.729 59.9743 103.718 60.0227 103.707C69.3053 101.617 78.5265 99.5826 87.8097 97.4916" stroke="#373535" stroke-width="0.130248" stroke-miterlimit="10"/>
<path d="M83.374 94.9656C84.6457 95.9143 86.3739 96.8166 87.8103 97.4907" stroke="#373535" stroke-width="0.130248" stroke-miterlimit="10"/>
<path d="M61.3214 134.487C62.5434 134.523 63.7877 134.606 65.0104 134.642" stroke="#373535" stroke-width="0.130248" stroke-miterlimit="10"/>
<path d="M70.5147 146.66C70.5173 146.768 70.516 146.714 70.5147 146.66Z" stroke="#373535" stroke-width="0.130248" stroke-miterlimit="10"/>
<path d="M65.0099 134.639C67.6266 133.861 70.3616 132.353 72.9633 131.581C71.9779 136.328 71.0737 141.835 70.5153 146.66C70.5146 146.628 70.514 146.598 70.514 146.598" stroke="#373535" stroke-width="0.130248" stroke-miterlimit="10"/>
<path d="M82.554 125.578L87.8095 97.4899" stroke="#373535" stroke-width="0.130248" stroke-miterlimit="10"/>
<path d="M87.8093 97.4913C87.5242 107.797 86.5768 117.043 84.5159 127.2" stroke="#373535" stroke-width="0.130248" stroke-miterlimit="10"/>
<path d="M72.9629 131.583C75.135 129.833 77.4986 127.2 79.6713 125.451" stroke="#373535" stroke-width="0.130248" stroke-miterlimit="10"/>
<path d="M79.6714 125.446C79.9735 131.202 79.2163 136.931 77.1044 142.344" stroke="#373535" stroke-width="0.130248" stroke-miterlimit="10"/>
<path d="M70.5147 146.66C72.7267 145.334 75.0792 143.944 77.1041 142.348" stroke="#373535" stroke-width="0.130248" stroke-miterlimit="10"/>
<path d="M77.1043 142.347C78.4885 144.151 80.0034 145.745 81.2896 147.621C82.5521 147.982 83.8356 148.201 85.0982 148.562" stroke="#373535" stroke-width="0.130248" stroke-miterlimit="10"/>
<path d="M77.1061 142.312C77.1061 142.312 77.1061 142.315 77.1054 142.323V142.332C77.1054 142.335 77.1054 142.338 77.1048 142.342V142.349C77.1048 142.352 77.1048 142.354 77.1041 142.356C77.1048 142.357 77.1048 142.358 77.1041 142.359V142.363C77.1041 142.376 77.1035 142.387 77.1035 142.387" stroke="#373535" stroke-width="0.130248" stroke-miterlimit="10"/>
<path d="M84.1425 125.668C84.1405 125.669 84.1366 125.672 84.132 125.676" stroke="#373535" stroke-width="0.130248" stroke-miterlimit="10"/>
<path d="M84.132 125.676L84.1432 125.668C84.1453 125.665 84.1468 125.665 84.1468 125.665" stroke="#373535" stroke-width="0.130248" stroke-miterlimit="10"/>
<path d="M84.1172 125.684L84.1179 125.683C84.12 125.682 84.1235 125.68 84.1311 125.673" stroke="#373535" stroke-width="0.130248" stroke-miterlimit="10"/>
<path d="M84.1334 125.676H84.132" stroke="#373535" stroke-width="0.130248" stroke-miterlimit="10"/>
<path d="M79.6707 125.448C80.6253 125.448 81.591 125.513 82.5528 125.579C83.0811 125.614 83.6074 125.651 84.1312 125.676" stroke="#373535" stroke-width="0.130248" stroke-miterlimit="10"/>
<path d="M84.1409 125.707C84.2677 126.203 84.3926 126.699 84.5142 127.195C85.6336 131.739 86.5405 136.29 87.2486 140.93" stroke="#373535" stroke-width="0.130248" stroke-miterlimit="10"/>
<path d="M84.1359 125.692C84.1373 125.697 84.1387 125.703 84.1402 125.708" stroke="#373535" stroke-width="0.130248" stroke-miterlimit="10"/>
<path d="M84.1409 125.71L84.1417 125.713L84.1425 125.715" stroke="#373535" stroke-width="0.130248" stroke-miterlimit="10"/>
<path d="M84.1402 125.705C84.1416 125.709 84.1416 125.708 84.1394 125.701C84.1387 125.699 84.1373 125.695 84.1359 125.69" stroke="#373535" stroke-width="0.130248" stroke-miterlimit="10"/>
<path d="M84.132 125.672L84.1326 125.675C84.1333 125.678 84.134 125.68 84.1347 125.682C84.1367 125.691 84.1381 125.694 84.1367 125.69V125.691" stroke="#373535" stroke-width="0.130248" stroke-miterlimit="10"/>
<path d="M84.132 125.676C84.13 125.667 84.1274 125.658 84.1274 125.658V125.658C84.1241 125.645 84.1228 125.641 84.1234 125.644C84.1221 125.64 84.1221 125.639 84.1221 125.639" stroke="#373535" stroke-width="0.130248" stroke-miterlimit="10"/>
<path d="M87.2498 140.934C86.4521 143.343 85.6362 146.09 85.0987 148.562" stroke="#373535" stroke-width="0.130248" stroke-miterlimit="10"/>
<path d="M70.5147 146.658C75.0707 148.48 80.2315 149.191 85.098 148.561" stroke="#373535" stroke-width="0.130248" stroke-miterlimit="10"/>
<path d="M53.7986 128.41C55.0971 132.512 56.3983 136.823 56.8344 141.105C57.2698 145.385 56.5107 150.156 54.3968 153.905" stroke="#373535" stroke-width="0.130248" stroke-miterlimit="10"/>
<path d="M53.8419 128.426H53.8426C53.8433 128.427 53.8433 128.427 53.844 128.427C53.8476 128.428 53.849 128.428 53.849 128.428" stroke="#373535" stroke-width="0.130248" stroke-miterlimit="10"/>
<path d="M53.8429 128.428C53.837 128.427 53.8279 128.424 53.8168 128.421C53.8155 128.42 53.8136 128.419 53.8116 128.419C53.8116 128.419 53.811 128.419 53.8103 128.418C53.8064 128.417 53.8025 128.416 53.7986 128.415" stroke="#373535" stroke-width="0.130248" stroke-miterlimit="10"/>
<path d="M53.7552 128.397C53.7581 128.399 53.7616 128.399 53.7658 128.401" stroke="#373535" stroke-width="0.130248" stroke-miterlimit="10"/>
<path d="M53.7474 128.392C53.7481 128.392 53.7497 128.392 53.7512 128.393" stroke="#373535" stroke-width="0.130248" stroke-miterlimit="10"/>
<path d="M53.752 128.393C53.7504 128.392 53.7488 128.392 53.748 128.392C53.7472 128.391 53.7464 128.391 53.7464 128.391" stroke="#373535" stroke-width="0.130248" stroke-miterlimit="10"/>
<path d="M53.7503 128.391C53.7503 128.391 53.7511 128.391 53.7519 128.392C53.7527 128.392 53.7543 128.393 53.7559 128.393" stroke="#373535" stroke-width="0.130248" stroke-miterlimit="10"/>
<path d="M53.7969 128.405C53.7937 128.404 53.7904 128.403 53.7872 128.402C53.7859 128.402 53.7852 128.402 53.7839 128.401C53.7826 128.4 53.7819 128.4 53.7806 128.4C53.7741 128.398 53.7689 128.396 53.765 128.395C53.7611 128.394 53.7579 128.393 53.7552 128.392" stroke="#373535" stroke-width="0.130248" stroke-miterlimit="10"/>
<path d="M53.7974 128.41C52.6957 129.137 51.4148 129.756 50.6819 130.854C49.7502 132.249 48.791 133.715 48.6001 135.382C48.4784 136.446 48.6805 137.518 48.9061 138.565C50.0607 143.909 51.9824 148.998 54.3957 153.905" stroke="#373535" stroke-width="0.130248" stroke-miterlimit="10"/>
<path d="M61.3542 151.708L61.3522 151.706C61.3515 151.706 61.3508 151.705 61.3501 151.704C61.3501 151.704 61.344 151.698 61.3372 151.693" stroke="#373535" stroke-width="0.130248" stroke-miterlimit="10"/>
<path d="M54.3961 153.905C56.7441 152.978 58.8913 152.319 61.338 151.699L61.321 151.685" stroke="#373535" stroke-width="0.130248" stroke-miterlimit="10"/>
<path d="M61.3372 151.696C62.0956 150.546 62.7429 149.437 63.502 148.287" stroke="#373535" stroke-width="0.130248" stroke-miterlimit="10"/>
<path d="M63.5038 148.294C64.3989 147.893 65.3463 147.7 66.3238 147.751C66.348 147.753 66.3728 147.754 66.3977 147.756C66.401 147.756 66.4042 147.756 66.4075 147.756" stroke="#373535" stroke-width="0.130248" stroke-miterlimit="10"/>
<path d="M61.3214 134.48C63.8871 138.445 65.6623 142.961 66.3743 147.598C66.3776 147.618 66.3802 147.638 66.3835 147.658C66.388 147.69 66.3926 147.72 66.3972 147.752C66.3998 147.766 66.4018 147.78 66.4037 147.794" stroke="#373535" stroke-width="0.130248" stroke-miterlimit="10"/>
<path d="M61.3372 151.696C63.2444 151.046 65.2092 150.121 66.9504 149.107" stroke="#373535" stroke-width="0.130248" stroke-miterlimit="10"/>
<path d="M66.3773 147.61C66.5969 148.084 66.7297 148.639 66.9513 149.113" stroke="#373535" stroke-width="0.130248" stroke-miterlimit="10"/>
<path d="M66.3713 147.592L66.3737 147.597" stroke="#373535" stroke-width="0.130248" stroke-miterlimit="10"/>
<path d="M66.3734 147.6C66.3749 147.603 66.3756 147.606 66.3771 147.609" stroke="#373535" stroke-width="0.130248" stroke-miterlimit="10"/>
<path d="M66.2838 147.766C66.2981 147.763 66.3111 147.758 66.3222 147.75C66.3547 147.73 66.3769 147.696 66.3821 147.661C66.3847 147.644 66.3827 147.625 66.3762 147.609" stroke="#373535" stroke-width="0.130248" stroke-miterlimit="10"/>
<path d="M10.3143 70.9519C8.56072 76.5789 7.4773 82.4144 7.09546 88.2964C7.76499 86.3695 8.81441 84.799 10.213 83.3141" stroke="#373535" stroke-width="0.130248" stroke-miterlimit="10"/>
<path d="M10.345 70.8882C11.7161 69.487 13.9072 68.7298 15.8674 68.771" stroke="#373535" stroke-width="0.130248" stroke-miterlimit="10"/>
<path d="M15.8551 68.7705C15.678 68.8228 15.6734 68.7829 15.8669 68.7672C15.5694 74.0999 10.1903 77.9713 10.2112 83.3113" stroke="#373535" stroke-width="0.130248" stroke-miterlimit="10"/>
<path d="M10.2111 83.3085C16.8287 88.1868 21.0335 95.3052 28.1826 99.3649C31.901 101.477 36.6623 102.9 39.8766 105.72" stroke="#373535" stroke-width="0.130248" stroke-miterlimit="10"/>
<path d="M39.8781 105.72C39.9229 105.718 39.9387 105.717 39.9387 105.717" stroke="#373535" stroke-width="0.130248" stroke-miterlimit="10"/>
<path d="M39.876 105.725C39.8543 105.726 39.8339 105.727 39.8339 105.727C39.8214 105.727 39.8161 105.728 39.8161 105.728" stroke="#373535" stroke-width="0.130248" stroke-miterlimit="10"/>
<path d="M39.8786 105.72H39.8771" stroke="#373535" stroke-width="0.130248" stroke-miterlimit="10"/>
<path d="M39.8786 105.72H39.8771" stroke="#373535" stroke-width="0.130248" stroke-miterlimit="10"/>
<path d="M7.09546 88.2901C16.7246 96.2683 27.8811 102.19 39.8778 105.72" stroke="#373535" stroke-width="0.130248" stroke-miterlimit="10"/>
<path d="M15.8674 68.7682C21.3891 71.7576 25.7358 76.498 29.7334 81.3397C33.731 86.182 37.4873 91.216 42.3316 95.2109" stroke="#373535" stroke-width="0.130248" stroke-miterlimit="10"/>
<path d="M15.8674 68.7659C15.8766 68.7639 15.8858 68.7613 15.8858 68.7613C15.8924 68.7599 15.8977 68.7586 15.9016 68.7573C15.9128 68.7547 15.9148 68.754 15.9128 68.7547C15.9148 68.754 15.9154 68.754 15.9154 68.754" stroke="#373535" stroke-width="0.130248" stroke-miterlimit="10"/>
<path d="M15.8203 68.7776L15.8229 68.7769C15.8249 68.7763 15.8289 68.7756 15.8341 68.7743C15.8295 68.775 15.8354 68.7736 15.8499 68.7704C15.8518 68.7697 15.8538 68.769 15.8564 68.769" stroke="#373535" stroke-width="0.130248" stroke-miterlimit="10"/>
<path d="M15.868 68.7702C15.8632 68.7716 15.859 68.7723 15.8556 68.7737" stroke="#373535" stroke-width="0.130248" stroke-miterlimit="10"/>
<path d="M39.8771 105.712V105.725V105.726C39.8784 105.751 39.8797 105.778 39.8778 105.726" stroke="#373535" stroke-width="0.130248" stroke-miterlimit="10"/>
<path d="M42.3264 95.2208C42.3277 95.2162 42.3304 95.2117 42.3323 95.2064C41.5797 98.8071 40.631 102.12 39.8784 105.72C39.8784 105.715 39.8778 105.71 39.8778 105.706C39.8778 105.695 39.8771 105.691 39.8771 105.691" stroke="#373535" stroke-width="0.130248" stroke-miterlimit="10"/>
<path d="M42.3184 95.2424C42.3198 95.2397 42.3219 95.2348 42.3239 95.23" stroke="#373535" stroke-width="0.130248" stroke-miterlimit="10"/>
<path d="M42.3165 95.2463C42.3165 95.2449 42.3179 95.2428 42.3193 95.2392" stroke="#373535" stroke-width="0.130248" stroke-miterlimit="10"/>
<path d="M42.3314 95.2066C42.3294 95.2118 42.3275 95.2164 42.3255 95.2209C42.3249 95.2229 42.3242 95.2242 42.3236 95.2255C42.3216 95.2301 42.3203 95.234 42.3184 95.2372C42.3184 95.2379 42.3184 95.2385 42.3177 95.2392C42.3164 95.2418 42.3158 95.2444 42.3151 95.2457L42.3145 95.2463" stroke="#373535" stroke-width="0.130248" stroke-miterlimit="10"/>
<path d="M42.348 95.1714C42.3501 95.1661 42.349 95.1672 42.348 95.1714Z" stroke="#373535" stroke-width="0.130248" stroke-miterlimit="10"/>
<path d="M42.3486 95.1728C42.3479 95.1735 42.3479 95.1735 42.3479 95.1741C42.3479 95.1748 42.3473 95.1748 42.3473 95.1755C42.3459 95.1787 42.344 95.1827 42.3414 95.1893C42.3387 95.1958 42.3354 95.2031 42.3322 95.2109" stroke="#373535" stroke-width="0.130248" stroke-miterlimit="10"/>
<path d="M93.1903 107.384C91.2118 112.605 92.8503 119.094 90.2323 124.026" stroke="#373535" stroke-width="0.130248" stroke-miterlimit="10"/>
<path d="M90.2323 124.027C91.7054 129.789 93.2256 135.385 94.6987 141.147" stroke="#373535" stroke-width="0.130248" stroke-miterlimit="10"/>
<path d="M90.2255 123.99C90.2255 123.99 90.2255 123.993 90.2274 124.004C90.2287 124.01 90.2294 124.017 90.2313 124.028C90.2326 124.036 90.2339 124.045 90.2339 124.045C90.2365 124.06 90.2372 124.066 90.2372 124.066" stroke="#373535" stroke-width="0.130248" stroke-miterlimit="10"/>
<path d="M93.1895 107.389C93.6105 108.191 94.2729 108.781 95.0366 109.274C96.018 109.91 97.1668 110.39 98.1835 110.971C100.479 112.283 102.421 114.121 104.269 116.004C107.503 119.298 110.692 123.162 113.493 126.826" stroke="#373535" stroke-width="0.130248" stroke-miterlimit="10"/>
<path d="M113.496 126.846C113.496 126.846 113.495 126.833 113.494 126.821C114.484 129.848 115.323 133.029 116.065 136.126" stroke="#373535" stroke-width="0.130248" stroke-miterlimit="10"/>
<path d="M113.492 126.8C113.492 126.8 113.492 126.807 113.494 126.826" stroke="#373535" stroke-width="0.130248" stroke-miterlimit="10"/>
<path d="M94.9781 109.381C96.3663 112.586 97.6569 115.684 98.8221 118.978" stroke="#373535" stroke-width="0.130248" stroke-miterlimit="10"/>
<path d="M98.8223 118.977C99.344 124.737 100.429 130.394 101.575 136.063" stroke="#373535" stroke-width="0.130248" stroke-miterlimit="10"/>
<path d="M94.6986 141.147C97.2185 139.899 99.6011 138.068 101.575 136.065" stroke="#373535" stroke-width="0.130248" stroke-miterlimit="10"/>
<path d="M101.575 136.063C106.195 134.983 111.417 135.169 116.064 136.126" stroke="#373535" stroke-width="0.130248" stroke-miterlimit="10"/>
<path d="M94.6986 141.148C98.2745 142.24 102.071 141.544 105.603 140.299C109.134 139.054 112.445 137.043 116.064 136.129" stroke="#373535" stroke-width="0.130248" stroke-miterlimit="10"/>
<path d="M129.524 128.258C119.247 136.735 107.857 143.775 95.7932 149.428" stroke="#373535" stroke-width="0.130248" stroke-miterlimit="10"/>
<path d="M95.7932 149.429C96.8995 151.341 98.168 153.269 99.4757 155.068C99.5835 155.218 99.6927 155.366 99.8013 155.514C99.8026 155.516 99.8039 155.517 99.8052 155.519" stroke="#373535" stroke-width="0.130248" stroke-miterlimit="10"/>
<path d="M99.4747 155.071C109.807 147.202 121.173 139.278 132.363 132.684" stroke="#373535" stroke-width="0.130248" stroke-miterlimit="10"/>
<path d="M129.523 128.258C130.033 127.968 130.795 128.185 131.176 128.633C131.556 129.081 131.707 129.674 131.848 130.245C132.034 131 132.176 131.925 132.362 132.681" stroke="#373535" stroke-width="0.130248" stroke-miterlimit="10"/>
<path d="M129.167 127.422C131.196 125.558 133.213 123.996 135.318 122.313C135.684 122.02 136.054 121.723 136.426 121.421C136.574 121.764 136.732 122.099 136.899 122.427C137.87 124.344 139.144 126.031 140.647 127.609C138.03 129.53 135.278 131.248 132.364 132.681" stroke="#373535" stroke-width="0.130248" stroke-miterlimit="10"/>
<path d="M129.167 127.42C129.305 127.591 129.387 128.083 129.524 128.255" stroke="#373535" stroke-width="0.130248" stroke-miterlimit="10"/>
<path d="M136.921 122.416C137.711 121.239 138.585 120.132 139.533 119.106C140.809 121.756 142.02 124.398 143.296 127.047C142.409 127.205 141.533 127.451 140.646 127.61" stroke="#373535" stroke-width="0.130248" stroke-miterlimit="10"/>
<path d="M143.295 127.051C143.26 127.738 143.161 128.418 143.126 129.106" stroke="#373535" stroke-width="0.130248" stroke-miterlimit="10"/>
<path d="M140.645 127.608C140.646 128.303 140.633 128.929 140.624 129.569C140.617 130.003 140.611 130.442 140.611 130.913" stroke="#373535" stroke-width="0.130248" stroke-miterlimit="10"/>
<path d="M132.363 132.676C132.152 133.666 132.368 134.045 132.156 135.036C132.968 134.604 133.781 134.182 134.596 133.769C136.577 132.767 138.573 131.819 140.612 130.908" stroke="#373535" stroke-width="0.130248" stroke-miterlimit="10"/>
<path d="M140.646 129.571C141.379 129.165 142.243 128.998 143.075 129.101" stroke="#373535" stroke-width="0.130248" stroke-miterlimit="10"/>
<path d="M99.8441 155.574C99.8441 155.574 99.8425 155.572 99.8401 155.569" stroke="#373535" stroke-width="0.130248" stroke-miterlimit="10"/>
<path d="M99.8401 155.56C99.8426 155.562 99.8434 155.565 99.8442 155.566L99.845 155.566" stroke="#373535" stroke-width="0.130248" stroke-miterlimit="10"/>
<path d="M99.8398 155.566C99.8372 155.563 99.8333 155.558 99.828 155.551C99.8267 155.55 99.8254 155.548 99.8234 155.545C99.8195 155.54 99.8155 155.535 99.8116 155.53" stroke="#373535" stroke-width="0.130248" stroke-miterlimit="10"/>
<path d="M99.78 155.489C99.78 155.489 99.7807 155.49 99.782 155.491C99.782 155.492 99.782 155.492 99.7827 155.493C99.7834 155.493 99.784 155.494 99.784 155.495C99.7853 155.496 99.7867 155.498 99.7887 155.501C99.7913 155.504 99.7946 155.507 99.7973 155.512C99.798 155.513 99.7993 155.514 99.8006 155.515" stroke="#373535" stroke-width="0.130248" stroke-miterlimit="10"/>
<path d="M99.8018 155.513C99.8026 155.514 99.8042 155.517 99.8067 155.519" stroke="#373535" stroke-width="0.130248" stroke-miterlimit="10"/>
<path d="M132.156 135.04C121.254 141.819 110.419 148.292 99.8125 155.527C99.8099 155.524 99.8073 155.52 99.8047 155.517" stroke="#373535" stroke-width="0.130248" stroke-miterlimit="10"/>
<path d="M108.179 108.286C116.203 112.998 123.541 120.009 129.167 127.42" stroke="#373535" stroke-width="0.130248" stroke-miterlimit="10"/>
<path d="M108.179 108.284C118.43 110.226 127.68 115.094 135.272 122.25" stroke="#373535" stroke-width="0.130248" stroke-miterlimit="10"/>
<path d="M134.537 133.687C134.558 133.717 134.577 133.746 134.597 133.776C139.845 141.555 143.705 151.728 145.082 161" stroke="#373535" stroke-width="0.130248" stroke-miterlimit="10"/>
<path d="M140.611 130.915C144.774 140.689 146.297 150.447 145.08 161" stroke="#373535" stroke-width="0.130248" stroke-miterlimit="10"/>
<path d="M132.763 62.3884C133.425 64.3905 135.098 66.129 137.178 66.4795C133.279 69.1112 130.621 73.505 130.1 78.1807C130.077 75.3038 130.022 72.2974 128.664 69.7618C127.868 68.275 126.47 67.0248 124.911 66.4553C125.302 66.4592 125.694 66.4625 126.085 66.4664C126.561 66.471 127.056 66.4723 127.49 66.2722C127.999 66.0375 128.348 65.5615 128.663 65.0973C130.564 62.2943 131.955 59.4906 132.981 56.2874C132.408 58.2143 132.146 60.5204 132.763 62.3884Z" fill="#F0D465"/>
<path d="M120.183 13.4942C120.995 15.4675 122.816 16.993 124.901 17.448C122.151 20.2216 120.275 23.8491 119.601 27.6963C120.169 23.3554 117.914 18.7766 114.127 16.5803C116.577 15.7206 118.598 13.9277 119.731 11.6961C119.804 12.3303 119.955 12.9417 120.183 13.4942Z" fill="#F0D465"/>
<path d="M120.695 6.9999C120.818 8.65869 120.456 10.2685 119.73 11.6978C119.539 10.0671 119.859 8.28927 120.695 6.9999Z" fill="#F0D465"/>
<path d="M14.4661 50.5473C12.9924 52.3283 12.2476 54.6888 12.4046 56.9922C12.2248 55.7669 11.8521 54.5599 11.0328 53.6497C10.12 52.635 8.50896 52.1551 7.3327 52.7697C9.37858 51.392 10.6719 49.1951 10.7941 46.8668C11.4741 48.5727 12.8407 50.0766 14.4661 50.5473Z" fill="#F0D465"/>
<path d="M10.3576 44.0715C10.7067 44.9973 10.8434 45.9454 10.7943 46.8726C10.4275 45.9546 10.2601 44.9771 10.3576 44.0715Z" fill="#F0D465"/>
<path d="M124.911 66.4514C126.47 67.0209 127.868 68.271 128.664 69.7579C130.022 72.2935 130.077 75.2999 130.1 78.1768C130.621 73.5011 133.279 69.1073 137.178 66.4756C135.098 66.1251 133.425 64.3866 132.763 62.3845C132.146 60.5165 132.408 58.2103 132.981 56.2835C133.022 56.1455 133.065 56.0089 133.109 55.8748" stroke="#373535" stroke-width="0.0651238" stroke-miterlimit="10"/>
<path d="M124.91 66.4543C123.779 66.4432 122.649 66.4321 121.518 66.4217C122.627 65.9888 123.809 66.0522 124.91 66.4543Z" stroke="#373535" stroke-width="0.0651238" stroke-miterlimit="10"/>
<path d="M133.109 55.8772C133.068 56.0145 133.024 56.1505 132.981 56.2859C131.955 59.489 130.564 62.2927 128.663 65.0957C128.348 65.56 127.999 66.036 127.49 66.2707C127.056 66.4708 126.561 66.4695 126.085 66.4649C125.694 66.461 125.302 66.4577 124.911 66.4538" stroke="#373535" stroke-width="0.0651238" stroke-miterlimit="10"/>
<path d="M119.73 11.6978C119.539 10.0671 119.859 8.28927 120.695 6.9999" stroke="#373535" stroke-width="0.0651238" stroke-miterlimit="10"/>
<path d="M119.732 11.6961C118.599 13.9277 116.578 15.7206 114.128 16.5803C117.915 18.7766 120.17 23.3554 119.602 27.6963C120.276 23.8491 122.152 20.2216 124.902 17.448C122.817 16.993 120.996 15.4675 120.184 13.4942C119.956 12.9417 119.805 12.3303 119.732 11.6961Z" stroke="#373535" stroke-width="0.0651238" stroke-miterlimit="10"/>
<path d="M120.696 6.9999C120.819 8.65869 120.458 10.2685 119.732 11.6978" stroke="#373535" stroke-width="0.0651238" stroke-miterlimit="10"/>
<path d="M12.4051 56.9963C12.2482 54.6929 12.9929 52.3325 14.4667 50.5514C12.8412 50.0806 11.4747 48.5768 10.7947 46.8709C10.4279 45.9529 10.2605 44.9754 10.3579 44.0699" stroke="#373535" stroke-width="0.0651238" stroke-miterlimit="10"/>
<path d="M12.4044 56.9978C12.4449 57.2731 12.4756 57.549 12.4998 57.823C12.4547 57.5497 12.4233 57.2744 12.4044 56.9978Z" stroke="#373535" stroke-width="0.0651238" stroke-miterlimit="10"/>
<path d="M7.3327 52.7697C8.50896 52.1551 10.12 52.635 11.0328 53.6497C11.8521 54.5599 12.2248 55.7669 12.4046 56.9922" stroke="#373535" stroke-width="0.0651238" stroke-miterlimit="10"/>
<path d="M7.33281 52.7746C7.22427 52.8485 7.11311 52.9191 7 52.9878C7.10592 52.9061 7.21773 52.8348 7.33281 52.7746Z" stroke="#373535" stroke-width="0.0651238" stroke-miterlimit="10"/>
<path d="M10.358 44.0685C10.7072 44.9944 10.8439 45.9424 10.7948 46.8696C10.6725 49.1979 9.37925 51.3948 7.33337 52.7725" stroke="#373535" stroke-width="0.0651238" stroke-miterlimit="10"/>
<path d="M132.763 62.3884C133.425 64.3905 135.098 66.129 137.178 66.4795C133.279 69.1112 130.621 73.505 130.1 78.1807C130.077 75.3038 130.022 72.2974 128.664 69.7618C127.868 68.275 126.47 67.0248 124.911 66.4553C125.302 66.4592 125.694 66.4625 126.085 66.4664C126.561 66.471 127.056 66.4723 127.49 66.2722C127.999 66.0375 128.348 65.5615 128.663 65.0973C130.564 62.2943 131.955 59.4906 132.981 56.2874C132.408 58.2143 132.146 60.5204 132.763 62.3884Z" fill="#F0D465"/>
<path d="M120.183 13.4942C120.995 15.4675 122.816 16.993 124.901 17.448C122.151 20.2216 120.275 23.8491 119.601 27.6963C120.169 23.3554 117.914 18.7766 114.127 16.5803C116.577 15.7206 118.598 13.9277 119.731 11.6961C119.804 12.3303 119.955 12.9417 120.183 13.4942Z" fill="#F0D465"/>
<path d="M120.695 6.9999C120.818 8.65869 120.456 10.2685 119.73 11.6978C119.539 10.0671 119.859 8.28927 120.695 6.9999Z" fill="#F0D465"/>
<path d="M14.4668 50.5514C12.993 52.3325 12.2483 54.6929 12.4052 56.9963C12.2254 55.771 11.8527 54.564 11.0335 53.6539C10.1207 52.6392 8.50964 52.1593 7.33337 52.7738C9.37925 51.3962 10.6725 49.1993 10.7948 46.8709C11.4748 48.5769 12.8413 50.0807 14.4668 50.5514Z" fill="#F0D465"/>
<path d="M10.3579 44.0691C10.7071 44.9949 10.8437 45.943 10.7947 46.8701C10.4279 45.9521 10.2605 44.9747 10.3579 44.0691Z" fill="#F0D465"/>
<path d="M124.911 66.4553C126.47 67.0248 127.868 68.275 128.664 69.7618C130.022 72.2974 130.077 75.3038 130.1 78.1807C130.621 73.505 133.279 69.1112 137.178 66.4795C135.098 66.129 133.425 64.3905 132.763 62.3884C132.146 60.5204 132.408 58.2142 132.981 56.2874C133.022 56.1494 133.065 56.0128 133.109 55.8788" stroke="#373535" stroke-width="0.0651238" stroke-miterlimit="10"/>
<path d="M124.91 66.4543C123.779 66.4432 122.649 66.4321 121.518 66.4217C122.627 65.9888 123.809 66.0522 124.91 66.4543Z" stroke="#373535" stroke-width="0.0651238" stroke-miterlimit="10"/>
<path d="M119.73 11.6978C119.539 10.0671 119.859 8.28927 120.695 6.9999" stroke="#373535" stroke-width="0.0651238" stroke-miterlimit="10"/>
<path d="M119.732 11.6961C118.599 13.9277 116.578 15.7206 114.128 16.5803C117.915 18.7766 120.17 23.3554 119.602 27.6963C120.276 23.8491 122.152 20.2216 124.902 17.448C122.817 16.993 120.996 15.4675 120.184 13.4942C119.956 12.9417 119.805 12.3303 119.732 11.6961Z" stroke="#373535" stroke-width="0.0651238" stroke-miterlimit="10"/>
<path d="M120.696 6.9999C120.819 8.65869 120.458 10.2685 119.732 11.6978" stroke="#373535" stroke-width="0.0651238" stroke-miterlimit="10"/>
<path d="M12.4051 56.9963C12.2482 54.6929 12.9929 52.3325 14.4667 50.5514C12.8412 50.0806 11.4747 48.5768 10.7947 46.8709C10.4279 45.9529 10.2605 44.9754 10.3579 44.0699" stroke="#373535" stroke-width="0.0651238" stroke-miterlimit="10"/>
<path d="M12.4044 56.9978C12.4449 57.2731 12.4756 57.549 12.4998 57.823C12.4547 57.5497 12.4233 57.2744 12.4044 56.9978Z" stroke="#373535" stroke-width="0.0651238" stroke-miterlimit="10"/>
<path d="M7.3327 52.7697C8.50896 52.1551 10.12 52.635 11.0328 53.6497C11.8521 54.5599 12.2248 55.7669 12.4046 56.9922" stroke="#373535" stroke-width="0.0651238" stroke-miterlimit="10"/>
<path d="M7.33281 52.7666C7.22427 52.8405 7.11311 52.9111 7 52.9797C7.10592 52.898 7.21773 52.8267 7.33281 52.7666Z" stroke="#373535" stroke-width="0.0651238" stroke-miterlimit="10"/>
</g>
<defs>
<filter id="filter0_d_358_2758" x="0.980103" y="0.982178" width="158.572" height="174.028" filterUnits="userSpaceOnUse" color-interpolation-filters="sRGB">
<feFlood flood-opacity="0" result="BackgroundImageFix"/>
<feColorMatrix in="SourceAlpha" type="matrix" values="0 0 0 0 0 0 0 0 0 0 0 0 0 0 0 0 0 0 127 0" result="hardAlpha"/>
<feOffset dx="4" dy="4"/>
<feGaussianBlur stdDeviation="5"/>
<feComposite in2="hardAlpha" operator="out"/>
<feColorMatrix type="matrix" values="0 0 0 0 0.0203125 0 0 0 0 0.0291146 0 0 0 0 0.108333 0 0 0 0.4 0"/>
<feBlend mode="normal" in2="BackgroundImageFix" result="effect1_dropShadow_358_2758"/>
<feBlend mode="normal" in="SourceGraphic" in2="effect1_dropShadow_358_2758" result="shape"/>
</filter>
</defs>
</svg>
