<svg width="22" height="23" viewBox="0 0 22 23" fill="none" xmlns="http://www.w3.org/2000/svg">
<g clip-path="url(#clip0_1_630)">
<path fill-rule="evenodd" clip-rule="evenodd" d="M0 12C0 5.92529 4.92452 1 10.9992 1C17.0739 1 21.9985 5.92529 21.9985 12C21.9985 18.0747 17.0739 23 10.9992 23C4.92452 23 0 18.0747 0 12ZM17.1778 6.46174L14.8444 17.6862C14.7895 17.9512 14.4788 18.0713 14.2595 17.9119L11.0743 15.5992C10.8809 15.4588 10.6172 15.4663 10.4321 15.6172L8.66607 17.0569C8.46114 17.2245 8.15228 17.1311 8.0738 16.8786L7.85155 16.1638C7.21825 14.127 5.67774 12.4981 3.67938 11.7522C3.35756 11.6316 3.35481 11.1773 3.67572 11.0536L16.6779 6.0374C16.9535 5.93081 17.2379 6.17229 17.1778 6.46174Z" fill="white"/>
<path fill-rule="evenodd" clip-rule="evenodd" d="M14.0684 8.49383L7.87668 12.3075C7.63937 12.454 7.52767 12.7406 7.60423 13.0089L8.27367 15.3614C8.32129 15.528 8.5631 15.511 8.58628 15.3388L8.76026 14.0488C8.79313 13.8059 8.90893 13.582 9.08859 13.4149L14.1985 8.6646C14.2942 8.57598 14.1796 8.42552 14.0684 8.49383Z" fill="white"/>
</g>
<defs>
<clipPath id="clip0_1_630">
<rect width="21.9985" height="22" fill="white" transform="translate(0 0.996094)"/>
</clipPath>
</defs>
</svg>
