<svg width="22" height="22" viewBox="0 0 22 22" fill="none" xmlns="http://www.w3.org/2000/svg">
<g clip-path="url(#clip0_1_610)">
<path fill-rule="evenodd" clip-rule="evenodd" d="M21.9992 10.9996C21.9992 17.0745 17.0745 21.9992 10.9996 21.9992C4.9247 21.9992 0 17.0745 0 10.9996C0 4.9247 4.9247 0 10.9996 0C17.0745 0 21.9992 4.9247 21.9992 10.9996ZM16.3904 7.07856C16.9763 7.0086 17.5336 6.85297 18.0524 6.62274C17.6633 7.20456 17.1738 7.71245 16.6067 8.12265C16.6127 8.2468 16.6155 8.3714 16.6155 8.49693C16.6155 12.3207 13.7047 16.7299 8.38247 16.7299C6.74829 16.7299 5.22758 16.2505 3.94681 15.4293C4.1733 15.4566 4.40401 15.4705 4.63745 15.4705C5.99277 15.4705 7.24064 15.0077 8.23098 14.2314C6.96511 14.2078 5.89645 13.3712 5.52821 12.222C5.70514 12.2553 5.88625 12.273 6.07293 12.273C6.33696 12.273 6.59217 12.2381 6.83536 12.1715C5.51152 11.9056 4.51423 10.7365 4.51423 9.33436V9.29779C4.91606 9.52128 5.36554 9.64533 5.82511 9.65957C5.04879 9.14077 4.53788 8.25513 4.53788 7.25134C4.53788 6.72101 4.68052 6.22395 4.92972 5.79644C6.35686 7.54689 8.489 8.69888 10.8939 8.81975C10.8449 8.6076 10.8194 8.38664 10.8194 8.16015C10.8194 6.56164 12.115 5.26652 13.7126 5.26652C14.5449 5.26652 15.2972 5.61761 15.8248 6.17995C16.4731 6.05262 17.0947 5.81511 17.6628 5.47773C17.4465 6.15306 16.9884 6.72048 16.3904 7.07856Z" fill="white"/>
</g>
<defs>
<clipPath id="clip0_1_610">
<rect width="21.9992" height="21.9992" fill="white"/>
</clipPath>
</defs>
</svg>
