<svg width="42" height="54" viewBox="0 0 42 54" fill="none" xmlns="http://www.w3.org/2000/svg">
<g id="Group 488">
<g id="Group 481">
<path id="Rectangle 240" d="M0 25.7578L21.157 -1L13.275 29.2381L0 25.7578Z" fill="url(#paint0_linear_165_519)"/>
<path id="Rectangle 242" d="M21.1573 -1L42.3144 25.7578L29.0394 29.2381L21.1573 -1Z" fill="url(#paint1_linear_165_519)"/>
<path id="Rectangle 241" d="M21.1573 -1L29.0393 29.2381H13.2753L21.1573 -1Z" fill="url(#paint2_linear_165_519)"/>
</g>
<g id="Group 482">
<path id="Rectangle 243" d="M42.3154 25.7492L21.1584 54.9961L29.0404 29.2296L42.3154 25.7492Z" fill="url(#paint3_linear_165_519)"/>
<path id="Rectangle 244" d="M21.1592 54.9961L0.00214642 25.7492L13.2771 29.2296L21.1592 54.9961Z" fill="url(#paint4_linear_165_519)"/>
<path id="Rectangle 245" d="M21.158 54.9961L13.276 29.2296L29.04 29.2296L21.158 54.9961Z" fill="url(#paint5_linear_165_519)"/>
</g>
</g>
<defs>
<linearGradient id="paint0_linear_165_519" x1="10.5785" y1="-1" x2="10.5785" y2="28.2469" gradientUnits="userSpaceOnUse">
<stop stop-color="#FE5873"/>
<stop offset="0.739583" stop-color="#FF7A8F"/>
<stop offset="1" stop-color="#FF8B9F"/>
</linearGradient>
<linearGradient id="paint1_linear_165_519" x1="31.7359" y1="-1" x2="31.7359" y2="28.2469" gradientUnits="userSpaceOnUse">
<stop stop-color="#FE5873"/>
<stop offset="0.739583" stop-color="#FF7A8F"/>
<stop offset="1" stop-color="#FF8B9F"/>
</linearGradient>
<linearGradient id="paint2_linear_165_519" x1="21.1573" y1="-1" x2="21.1573" y2="28.2469" gradientUnits="userSpaceOnUse">
<stop stop-color="#FF677F"/>
<stop offset="0.635417" stop-color="#FF93A6"/>
<stop offset="1" stop-color="#FFA2B3"/>
</linearGradient>
<linearGradient id="paint3_linear_165_519" x1="31.7369" y1="54.9961" x2="31.7369" y2="25.7492" gradientUnits="userSpaceOnUse">
<stop stop-color="#C11738"/>
<stop offset="1" stop-color="#F9415E"/>
</linearGradient>
<linearGradient id="paint4_linear_165_519" x1="10.5807" y1="54.9961" x2="10.5807" y2="25.7492" gradientUnits="userSpaceOnUse">
<stop stop-color="#C11738"/>
<stop offset="1" stop-color="#F9415E"/>
</linearGradient>
<linearGradient id="paint5_linear_165_519" x1="21.158" y1="54.9961" x2="21.158" y2="28.2383" gradientUnits="userSpaceOnUse">
<stop stop-color="#EB2347"/>
<stop offset="1" stop-color="#FE647C"/>
</linearGradient>
</defs>
</svg>
